<mxfile host="65bd71144e">
    <diagram id="wrWJDSsSHIZ2jDOjtseA" name="Page-1">
        <mxGraphModel dx="1292" dy="709" grid="1" gridSize="10" guides="1" tooltips="1" connect="1" arrows="1" fold="1" page="1" pageScale="1" pageWidth="850" pageHeight="1100" math="0" shadow="0">
            <root>
                <mxCell id="0"/>
                <mxCell id="1" parent="0"/>
                <mxCell id="2" value="SMHI Open API" style="rounded=1;whiteSpace=wrap;html=1;" parent="1" vertex="1">
                    <mxGeometry x="320" y="30" width="120" height="60" as="geometry"/>
                </mxCell>
                <mxCell id="5" style="edgeStyle=none;html=1;entryX=0.5;entryY=1;entryDx=0;entryDy=0;fillColor=#008a00;strokeColor=#005700;" parent="1" source="3" target="2" edge="1">
                    <mxGeometry relative="1" as="geometry"/>
                </mxCell>
                <mxCell id="11" value="Rest API" style="text;html=1;strokeColor=none;fillColor=none;align=center;verticalAlign=middle;whiteSpace=wrap;rounded=0;" parent="1" vertex="1">
                    <mxGeometry x="320" y="100" width="60" height="30" as="geometry"/>
                </mxCell>
                <mxCell id="13" value="" style="swimlane;startSize=0;" parent="1" vertex="1">
                    <mxGeometry x="260" y="141" width="390" height="289" as="geometry">
                        <mxRectangle x="241" y="141" width="50" height="40" as="alternateBounds"/>
                    </mxGeometry>
                </mxCell>
                <mxCell id="22" style="edgeStyle=none;html=1;fillColor=#008a00;strokeColor=#005700;" parent="13" source="3" target="15" edge="1">
                    <mxGeometry relative="1" as="geometry"/>
                </mxCell>
                <mxCell id="15" value="TrueWind.Core" style="rounded=1;whiteSpace=wrap;html=1;" parent="13" vertex="1">
                    <mxGeometry x="255" y="89" width="120" height="60" as="geometry"/>
                </mxCell>
                <mxCell id="27" style="edgeStyle=none;html=1;fillColor=#d80073;strokeColor=#A50040;" parent="13" source="25" target="3" edge="1">
                    <mxGeometry relative="1" as="geometry"/>
                </mxCell>
                <mxCell id="25" value="TrueWind.API" style="rounded=1;whiteSpace=wrap;html=1;" parent="13" vertex="1">
                    <mxGeometry x="135" y="219" width="120" height="60" as="geometry"/>
                </mxCell>
                <mxCell id="31" style="edgeStyle=none;html=1;fillColor=#a20025;strokeColor=#6F0000;" parent="13" source="30" target="25" edge="1">
                    <mxGeometry relative="1" as="geometry"/>
                </mxCell>
                <mxCell id="37" value="" style="group" parent="13" vertex="1" connectable="0">
                    <mxGeometry x="135" y="317" width="120" height="60" as="geometry"/>
                </mxCell>
                <mxCell id="30" value="TrueWind.Web" style="rounded=1;whiteSpace=wrap;html=1;" parent="37" vertex="1">
                    <mxGeometry width="120" height="60" as="geometry"/>
                </mxCell>
                <mxCell id="33" value="ASP.NET Razor pages" style="text;html=1;strokeColor=none;fillColor=none;align=center;verticalAlign=middle;whiteSpace=wrap;rounded=0;fontSize=5;" parent="37" vertex="1">
                    <mxGeometry x="30" width="60" height="19" as="geometry"/>
                </mxCell>
                <mxCell id="38" value="" style="group" parent="13" vertex="1" connectable="0">
                    <mxGeometry x="60" y="20" width="120" height="60" as="geometry"/>
                </mxCell>
                <mxCell id="3" value="TrueWind.SmhiClient" style="rounded=1;whiteSpace=wrap;html=1;" parent="38" vertex="1">
                    <mxGeometry width="120" height="60" as="geometry"/>
                </mxCell>
                <mxCell id="35" value="HttpClient" style="text;html=1;strokeColor=none;fillColor=none;align=center;verticalAlign=middle;whiteSpace=wrap;rounded=0;fontSize=5;" parent="38" vertex="1">
                    <mxGeometry x="30" width="60" height="19" as="geometry"/>
                </mxCell>
                <mxCell id="84" value="TrueWind Infrastructure" style="text;html=1;strokeColor=none;fillColor=none;align=center;verticalAlign=middle;whiteSpace=wrap;rounded=0;fontSize=5;" parent="13" vertex="1">
                    <mxGeometry x="165" y="219" width="60" height="19" as="geometry"/>
                </mxCell>
                <mxCell id="74" style="edgeStyle=none;html=1;entryX=0.5;entryY=0;entryDx=0;entryDy=0;fontSize=5;exitX=0.5;exitY=1;exitDx=0;exitDy=0;" parent="1" source="40" target="73" edge="1">
                    <mxGeometry relative="1" as="geometry">
                        <mxPoint x="450" y="606" as="sourcePoint"/>
                    </mxGeometry>
                </mxCell>
                <mxCell id="40" value="Cloud IaaS" style="rounded=1;whiteSpace=wrap;html=1;" parent="1" vertex="1">
                    <mxGeometry x="395" y="546" width="120" height="60" as="geometry"/>
                </mxCell>
                <mxCell id="41" style="edgeStyle=none;html=1;entryX=0.5;entryY=0;entryDx=0;entryDy=0;fontSize=5;fillColor=#a20025;strokeColor=#6F0000;" parent="1" source="30" target="40" edge="1">
                    <mxGeometry relative="1" as="geometry"/>
                </mxCell>
                <mxCell id="76" style="edgeStyle=none;html=1;fontSize=5;" parent="1" source="73" edge="1">
                    <mxGeometry relative="1" as="geometry">
                        <mxPoint x="455" y="720" as="targetPoint"/>
                    </mxGeometry>
                </mxCell>
                <mxCell id="73" value="mylocalwind.com/gkss" style="rounded=1;whiteSpace=wrap;html=1;" parent="1" vertex="1">
                    <mxGeometry x="395" y="630" width="120" height="60" as="geometry"/>
                </mxCell>
                <mxCell id="77" value="Actor" style="shape=umlActor;verticalLabelPosition=bottom;verticalAlign=top;html=1;outlineConnect=0;fontSize=5;" parent="1" vertex="1">
                    <mxGeometry x="440" y="720" width="30" height="60" as="geometry"/>
                </mxCell>
                <mxCell id="83" value="Azure, heroku, AWS" style="text;html=1;strokeColor=none;fillColor=none;align=center;verticalAlign=middle;whiteSpace=wrap;rounded=0;fontSize=5;" parent="1" vertex="1">
                    <mxGeometry x="410" y="546" width="60" height="19" as="geometry"/>
                </mxCell>
                <mxCell id="86" value="" style="shape=image;verticalLabelPosition=bottom;labelBackgroundColor=#ffffff;verticalAlign=top;aspect=fixed;imageAspect=0;image=data:image/png,iVBORw0KGgoAAAANSUhEUgAAAQoAAADrCAYAAACRpNhaAAAAAXNSR0IArs4c6QAAAARnQU1BAACxjwv8YQUAAAAJcEhZcwAADsMAAA7DAcdvqGQAAAASdEVYdFNvZnR3YXJlAEdyZWVuc2hvdF5VCAUAABaQSURBVHhe7Z2NleOsDoa3wykrJXwlpIHbw5QyZczl15aEsHCS2Umyz3MO52wCFgKjF+wszJ9vAIAAhAIAQhAKAAhBKAAgBKEAgBCEAgBCEAoACEEoACAEoQCAEIQCAEIQCgAIQSgAIAShAIAQhAIAQhAKAAg5EIqv7+vHn+8/fxbSxzWVfk++rpfv65M07vNy+f5s/34c9j7fXsfP+AfPwMKK4vP7cjCIPi/p+3cViq/r98efj+cQis/LXUEcUe7jPULxw/7B73K3UJQZ6fKGQlFEIrf5CYSiBOEdQbzAXULxF/yD3+V2oUiBdHVHhV3KmkDbArCmS7bhDbTtO8dGxtgZVzWBH4mv64fIE4Kn6p5fXzBlL5+63o9ykfedZg/UlERbdh9l0vfhuB8mSL/TNdcDoVC+pVTuWePH/IOn4kahqANfDpjKHhA1z35uiEF6uaaBlJ5tax01GPvg6wFVB6oI1D742qDbBvJWSfO5fd4H8ziAtZ81/yuJhhaRXOYAR9R0ANnvpM1ed/+u+d7aln2ZzvatXtvXez9M2Pxt9lQwyzqazR7c23W7/z/iHzwdJ4VCp+F+2wGYcIN0K5dSD4hcrvy71ycGY7dRKtwHXBcSnZ8wfrgB2sv0ICh2Pb9lUE8Q7dn65Ox3yg9dZhaIWiBFIG62PMb+y7h1bALS+sDzP/FY/+AZeeiKYhsYciBsg8sJ0pSsDZk3pGxXzH7eEr6wlan+7kEv6lOz6OjH3xKKPcjGpFdUOelA1AIpAtGUU0z6z6/DiLbwP772Rv/gKXngO4rJjLEaRJ2jvMyKUGzIwenYFHWVJDL/vlDMgycsY0TvMBBPCcXOnn/+2lP+wVNyu1A4bAPmQSsKVwjkoBsu3umBnm3sQe/UZ8Sk5/99oZjXMw/E7nu+dnHGPisU3efs8OTePNQ/eEoeKhR7cO3lvO/kgNuCqCOFwH2Wjf2xdbpCkXyQdfcyPQD2a35WKKRvrjAm/EAUgVeMrQai6D/RAW4dm7+tD4T/sVDc6h88Iw8VCjkY6hi0nxteEAn2gSfys4D0D+L6fbAnP5uw7NfXAe7aazb0ZyEKWx3NxtUTrYbXHuc7V7Am/ZvLjtfl/NSn5ZlPXFfavX6ftL3yhftoYP2Vn6VQPNo/eD4OhELOACa5M31nvG4PisQwKP2ZVAZ3SbZOEYg1icFn8spPsNvnfXbMfrki0jjK2xj8SPavi99tDZJBVJPuE9mn+3W6jy6pjj2Qj++RuTaVrf+PQvqUMPfqI/Wj9HPvk8f7B8/FwooCAP51EAoACEEoACAEoQCAEIQCAEIQCgAIQSgAIAShAIAQhAIAQhAKAAhBKAAgBKEAgBCEAgBCEAoACEEoACAEoQCAEIQCAEIQCgAIQSgAIAShAIAQhAIAQhAKAAhBKAAgBKEAgBCEAgBCEAoACEEoACAEoQCAEIQCAELWhWL4q91jqn/duv5la+8vlP8q0v/ZX9JWf737tf80/1f4l8PFX1B38qPrY/sO7R54fxn+vL1j/wsH9bn8lH+uzSh/wmGbms1lY+ssC0XuqD34RzHIf+L+B/x7DFkA+s1tYuDfuC4OtcOfTuxWSYNp970NHjW49f0rQSDzo+tD+yMy0Ia+P20v8D9xWJ/DUfmcZ/3bP3tk//aJptve7WYbNj+emA7bJCe5lQaf5IRQXEVDnFVDcvT6eP8eQungqPOyUgeD/bf4ul6+D8elIt0beyNy2/587DaGttb7Wbsoun7B/pQaZPpW3GDv0H+JV98RfvmvL+1IOJ4+UyyoS6p/2zXJnraY613pv8xxm/KE/atCoakNP1bV52Gl88rNf0ahKDPF6iCaYGx4/XHYR5EPyz4uBm5gb93/xwiF5fNy/n6E/bvs5NsIhW1I/ZzL7kun1tFl5sifbcObAre8SJDkkkzbqnXLvLETdV0lbYJhrldC0tt1bWX2waP9EUvKEgD9+5Qce9VO+nfy07arl6/fnxisagb2712xqfwRDDO4IcrfqG0cboHl0N4Z/xfr24jL50Ac89u9m15YfXaz85hw2jq/x8c+vohQtA7bGrJ/zqmWF4HZGqRvcs6XHXTcMXaA1A7W5Vc6bxxott7WllJGtks/W2o7rVwxYvqsiUa3vw/A1j97RqrjhCg46MHt37ux/Tt+cOxE+TvH97JzbO+M/2v17RyVl/fcG/sHHIpBtxm/o6gctyn33QsIRcY2pH6WZW1jaoe1jiqB0TtPJLfxXqeZQEusdJ4daO7AU0E7tqt+txDUoo3dreKjF6j3CsWwrPXv3bT+4XpDlK/w7pchtHfG/4X6FCvla5n1wM6+Hd+/Lhh+PFmOfVwZ67fwnELhDViPPKicTrODZqXzrDC4A0/VN7ar5h8MinZ99cX0U88rSdi4SyhSHU5fev3h95F//U6UbzFtHlizd8r/w/osi+XLPVkTijyu4vqP4sly7KPfD/fzpCuKVbWutqNBs9J5ViiqTyZAlRCM7erf+VX5/TKWbW3q9dwsFPkeTfpxEGPPl4PrC1G+x1H/nLC35H/mqD6PxfJ5HKwIZPJzLfhz0VU/j318SqHwHaoN2TvIfh4bo4Si2zYD4Trp8Hqt6DhnVi/1BTdW+5CpfsvrtN9juzKljLKT2nPJNkz5IgC733p5msu2z6I9n9eFwVnIfWjFJdncO6n0cf9oRXLt+qP8CW3VNBY7ay/yvzGtb8Ji+XyPQ5v5/ppC05+5c73B+Nw49LH2y3MIRRvge3KCq6WP6//M5xQuJZBaSp3z2QK9pm5L29F1jHSxqEkOOGvH6+DWuaKMFbktb7vYtlPfYtXGlPpl6vvLZbNR++UjDZY93/Oh26nttYHVGdvck267KKcGaXT9qn2NvkcpbYVvszf3vzKvz2defhwfo6nmS8sYbPXU/bQxNPVf3+PDNjUB2fOPY+YsN64oAOBfAqEAgBCEAgBCEAoACEEoACAEoQCAEIQCAEIQCgAIQSgAIAShAIAQhAIAQk4Khf5/72U/wucl+D/5z85Rm/Q+hMN2yv+///Hf93+z/SPD/8nPdsf9Dq/dp/BunBKKsqlJbGDpm1ReeVCvtGnbjDNt6C42+2auRBEPf/OWrTdT63nsZh6AR3BCKOqsN8TKS68o1tqUtwdfLjmIJzs2syC03aDKVhEKP/CnQuHsJAT4bU4IRZs132ogr7WpniOgtxJLctD3xweEAt6Rc+8oysBPAzwltcRW6Gf+PVDE9y2atiX9FhytzOW6le2Bt5VVNisqTwXaPLg3FtrUDxyp9ZhVxXboCEIB78vJl5kJ8zJOx2AN9D3gujgYsRAX7cEhhMQ7sGMLIB38OU8GeAnAI2HwOGxTzu4nE43Ck+uvH2dCsdsdEkIBL8J5oeh4M7E3g7YgrAF0JBTl05BfA3DybqAH7pD8WTxksrqQR5gVfzf7uX75b1YU8J6ce0cx/M3AvgqowaCDqFMDqAbeDUJRhOZIKGZ5K8RtKt8Ioaj+1PZk33dBQSjgfTn5MtMZ9DIY2oysgkUF0A1C4QXgxlHeCgttSiihSJQgTwL1Ef2hIoQC3oSTQpEDRA58G9hjGTv4dYDU4CrL/fKdJxTtGltvOdm62TerinOnVTu2jQ+5DuVSf6ehVaG0RT6yVKHwVzwIBbwSNzx6iOAegiXTg68lO/DVi8M0U2/BYa5zxWJPMnue13wdfOxEbZq3VR6vX8VKlON/ZsKbcfvLTAD4Z0AoACAEoQCAEIQCAEIQCgAIQSgAIAShAIAQhAIAQhAKAAhBKAAgBKEAgJBFoTD7MIZ0z1bvd6Tu3WC/BrwL51YUk23Tdhv2v82+wQuhgHfhIULxcnxdvy8/qmysKOC9uFMoUkC8XDTUxyh1bsTDQSjgvbhPKPLZCkM02PcZ3qEwwSnb3oEurr19mT/Py+9PmqANZ0FM3q30dsrypp32DAqdLYRC1bnXt52hsXfAcE5FTvaovS1P9VHNy2V3v3hvBI/jBqEQgzUnFSF2tu6ikQNYCogexHlwyxm+BFGzWwb+FhQtWFqeLCeDpXxKeTWri5NfzqIEoNfb2t2v0T7t12xVtDr2z7ZfEkkY9scf41Orb26vfq4+tH+3VG3YNgPcx2NXFDY/02bKWswbwHqg7ynbyXkLM6OYjXuwFRFRs26n1qeC1lADX7djt1ev1zHoi5Fupu6b8cBe2U7toxWmQrHXrxnbpEUU4D7ufEeRAkScYu0FmB7EM6GYiMEQQJZquwZRtb0FixAPvYIZg8ritWMLViV8O1qYah26jKw3/dsYUIFt2u2KnvJjbBNCAY/kTqEwlHw/QOp38xWFP6aP8owwDJ871cbR7GuZriiKI82ecUoHpu/3Zjf109AmJWz62nqdEUwlJmObEAp4JDcIhRmwiiYEIsi2mbh+coTCD4R+knYZ8Cpok41yArex1QKtB4s8/DZ9SoHUPwtB+by6ban+iGA1M3yUX+s7EC27OijfHwiwc50nTAgF/BSLQtEFYE9jEHRMWSsS/XsziKsg7Elmz/J6wJb0kWbpbj8VyELxIeobgqiV86h2818w36+3RVXdjkj0PNtP+bqx78b+rUmKh7ZrRaJ/n22r/hpECeA851YU/whdKHwZuQ//f7GmYHdF6/P7OhYG+OsgFA4/JxS+IMweEz4vPyNWAGdBKAz6keIRgSofK2b2zGNFS+4iA+AXQCgAIAShAIAQhAIAQhAKAAhBKAAgBKEAgBCEAgBCEAoACFkUCmcvwsIeAv2fl8ZrjvckzPY2NNpOVX198lNse99J31/++/7vhjYUhk1fmdn+DJFW7QM8OedWFOHu0U4LclcYxuu7YHgbzbLYjBrh2Gm7R93gTHnbaVLLbdjZBE05ktso/qdlsSs+Z38QCngTbhCK6L8195nWL1eDTuflPQ3XtvqwomA3UdVVyizQ88phDE5lY6kNkioIdSepvM5s2HLs9q3yAK/O44Wizeze6qBQbNht39mmLzBaKNpK5dQmCCMeJ4UiC1Pxtfk9rfqkXYBX4uFC0d9LTAOqPyKIAvsuyfGRZVwNHIiQR6pPvbY4FdBZvPrqpQnZrGEIBbwxf18oHDFQ26mNGKwJRV+N7KnX/5WW/8qVMwGdy4qGHD72nLEL8GL8nlCIAvbcBWnj1Iqi5MtATgJifwU5EdD5fYpqx9FjFUIBb8wTvaOQ9BVCEgnvHcXs1wTrX/o8CNZqQPdHJC959a/aBXhBHiYUe7DvQe6XG/NGocg0UTBL/f5T5cqs7tpdakPWCe9sy0S53nn8QCjgjblBKMYgKY8Kaur2Z/4a5OP1vlAk3PrE+wi7XFDBmnwYlhOJlTaU1cQs6Fv9dlUxsQvwDiwKhQjOSfJj0pSzwWWW994Mrn8eFZTAFLZLEoGa8rVPi21Qdm3g91WOzB/tTh+7AF6UcysKAPgnQSgAIAShAIAQhAIAQhAKAAhBKAAgBKEAgBCEAgBCEAoACEEoACAEoQCAkEWhcPZJzLZ6C/q5ErNr1F6QwZ7ZV2E3k9i9HuX65CencAM8nHMriuUdkmd3j9bA8jeFcQo3wG9zg1DMtl93+kzrl6tBp/PyNnNO4QZ4Xh4vFG1mn261LjZ0fj2PwhcYLRRtpWLV5BAjHieFIgtT8bX5Pa36pF2AV+LhQtHfS0wDqj8iiAL7wTXjI8upMzM9Un2cwg1wH39fKBwxUCdcGTFYE4q+GtlTr59TuAHu5/eEQhSwR+FJG6dWFCVfBnISEE7hBribJ3pHIekrhCQS3juK2a8J1r/0eRCs1YDuj0he8upftQvwgjxMKPZg34PcLzfmjUKRaaJglvr9p8qVWd21u9SGrBOcwg3QuUEoxiApjwpq6vZn/hrk4/W+UCTc+sT7CLtcUMGafBiWE4mVNpTVxCzoW/12VTGxC/AOLAqFCM5J8mPSlLPBZZb33gyufx4VlMAUtksSgZrytU+LbVB2beD3VY7MH+1OH7sAXpRzKwoA+CdBKAAgBKEAgBCEAgBCEAoACEEoACAEoQCAEIQCAEIQCgAIQSgAIAShAICQRaFw9knMtnoL+rkSs2vUXpDBntlXYTeT2L0e5frkJ6dwAzyccyuK5R2SZ3eP1sDyN4VxCjfAb3ODUMy2X3f6TOuXq0Gn8/I2c07hBnheHi8UbWafbrUuNnR+PY/CFxgtFG2lYtXkECMeJ4UiC1Pxtfk9rfqkXYBX4uFC0d9LTAOqPyKIAvvBNeMjy6kzMz1SfZzCDXAff18oHDFQJ1wZMVgTir4a2VOvn1O4Ae7n94RCFLBH4Ukbp1YUJV8GchIQTuEGuJsnekch6SuEJBLeO4rZrwnWv/R5EKzVgO6PSF7y6l+1C/CCPEwo9mDfg9wvN+aNQpFpomCW+v2nypVZ3bW71IasE5zCDdC5QSjGICmPCmrq9mf+GuTj9b5QJNz6xPsIu1xQwZp8GJYTiZU2lNXELOhb/XZVMbEL8A4sCoUIzknyY9KUs8FllvfeDK5/HhWUwBS2SxKBmvK1T4ttUHZt4PdVjswf7U4fuwBelHMrCgD4J0EoACAEoQCAEIQCAEIQCgAIQSgAIAShAIAQhAIAQhAKAAhBKAAgBKEAgJBFoXD2Scy2egv6uRKza9RekMGe2VdhN5PYvR7l+uQnp3ADPJxzK4rlHZJnd4/WwPI3hXEKN8Bvc4NQzLZfd/pM65erQafz8jZzTuEGeF4eLxRtZp9utS42dH49j8IXGC0UbaVi1eQQIx4nhSILU/G1+T2t+qRdgFfi4ULR30tMA6o/IogC+8E14yPLqTMzPVJ9nMINcB9/XygcMVAnXBkxWBOKvhrZU6+fU7gB7uf3hEIUsEfhSRunVhQlXwZyEhBO4Qa4myd6RyHpK4QkEt47itmvCda/9HkQrNWA7o9IXvLqX7UL8II8TCj2YN+D3C835o1CkWmiYJb6/afKlVndtbvUhqwTnMIN0LlBKMYgKY8Kaur2Z/4a5OP1vlAk3PrE+wi7XFDBmnwYlhOJlTaU1cQs6Fv9dlUxsQvwDiwKhQjOSfJj0pSzwWWW994Mrn8eFZTAFLZLEoGa8rVPi21Qdm3g91WOzB/tTh+7AF6UcysKAPgnQSgAIAShAIAQhAIAQhAKAAhBKAAgBKEAgBCEAgBCEAoACEEoACAEoQCAkEWhcPZJzLZ6C/q5ErNr1F6QwZ7ZV2E3k9i9HuX65CencAM8nHMriuUdkmd3j9bA8jeFcQo3wG9zg1DMtl93+kzrl6tBp/PyNnNO4QZ4Xh4vFG1mn261LjZ0fj2PwhcYLRRtpWLV5BAjHieFIgtT8bX5Pa36pF2AV+LhQtHfS0wDqj8iiAL7wTXjI8upMzM9Un2cwg1wH39fKBwxUCdcGTFYE4q+GtlTr59TuAHu5/eEQhSwR+FJG6dWFCVfBnISEE7hBribJ3pHIekrhCQS3juK2a8J1r/0eRCs1YDuj0he8upftQvwgjxMKPZg34PcLzfmjUKRaaJglvr9p8qVWd21u9SGrBOcwg3QuUEoxiApjwpq6vZn/hrk4/W+UCTc+sT7CLtcUMGafBiWE4mVNpTVxCzoW/12VTGxC/AOLAqFCM5J8mPSlLPBZZb33gyufx4VlMAUtksSgZrytU+LbVB2beD3VY7MH+1OH7sAXpRzKwoA+CdBKAAgBKEAgBCEAgBCEAoACEEoACAEoQCAEIQCAEIQCgAIQSgAIAShAIAQhAIAQhAKAAhBKAAg4Pv7/zNJeA6CCH0mAAAAAElFTkSuQmCC;" vertex="1" parent="1">
                    <mxGeometry x="92.49" y="590" width="227.51" height="201" as="geometry"/>
                </mxCell>
                <mxCell id="87" value="" style="shape=image;verticalLabelPosition=bottom;labelBackgroundColor=#ffffff;verticalAlign=top;aspect=fixed;imageAspect=0;image=data:image/png,iVBORw0KGgoAAAANSUhEUgAAAMsAAAC8CAYAAADW3FpKAAAAAXNSR0IArs4c6QAAAARnQU1BAACxjwv8YQUAAAAJcEhZcwAADsMAAA7DAcdvqGQAAAASdEVYdFNvZnR3YXJlAEdyZWVuc2hvdF5VCAUAABTbSURBVHhe7Z3bkeu4DkU7Q+czn/PjIG4ATmBy6FA6jL58ACQAghRky4+296pS1ZFIgiCITcqnZfnrFwAQAmIBIAjEAkAQiAWAIBALAEEgFgCCQCwABFmL5fv8+/X11Y/T5fcnXf65XH6/a43bMPbPS6M/v5dTrXe6ZC+O4+dyUn7wON+Jn8v5d1fYfi6/p69TqM33eWfMiu0e79m8F7svNCdTsXACqcRsgzwfI5aMEExULF/rirvoQkljusf4XoEdia8Xju02rX40mWm+W17Z8wLPNc+DPX8OE7GsnPv+PR/pdFgs96GvXm8mEKYtADsSvx0bbeSdQUgsnFfCrrdAsV2REDxPR99V7GEiliyI6pyXwP02TKz2+cgBkwHkAHjXGCUWaU9OlOnnEFX1McqjmzZ92sRpkyzatbE4E18OJ/mMnTHpNvxI9CTPZan+mWyovuftLdoeXbRkv0/n3zP7Zvx2dxxXuGOutQVMzPPuHewOTG/D1P3iMsBeIptEtNdEEMZkEvZUYCbtb8TfWboPtSt7TkihpwXkdE7JU85rvHiCeTWsfYlYcvLQOMckoTHTeU9i4SvZ0H7W8p8Uy1DiG7bbZL9yH7O5EteFDd9un9caJ3+e3bE/mMUHfOG0PFS2ZLyARa8lZMKRaT+B/SDeittX86lfcydLCp3GVOqVf7O/TrIU/3s8WEy6PGH86D6IZOM6Ks6e37PEH1m3yfb5+mROE82GuO7btfO6JZb4OI5mIZZKd1IeImHcgEWvJV5QLO2a66eYLMf3higbjmxX3H5N78NbHSsW0Z+wo64T1yTZqk2OTe9jLhYP3+6fF8v378V6ZCalD+TdxBL3073GrMoyEbE0hE+eTStMUXisWMQcuMe6jy2x/NHbsOyw79S46r6QWKygy7GeQK+vcYyJ5qewFxSLKwbp62w8CU6SbKMnjCdALSgunyf+nHmb28TSxyzrdZvsc4u/GGTzSc7Jg1mIZTLJnARtIC8klivw+urJsr7m+d6QYnAnWCaeHGfH9tnPRX/JB9k31+G5622OEItlMqeJZkNd7/Wbzy1OTlxFW54nNycfxFIsxWGVBTxYOblRYQibMoAvKJZxUp1JzqzEkui2TXLwiWjfx5TGSfHp7WvSuvbIhj4XSd76IBsXEfsJbj8u3jxnxHUrOPKnJb09L3B7nhN7/hzmYqEoydWsHNOg0HG+BK8l+20i+Tilfr3+xn5uX2GE+MTRk2PsUyWO3Dno8HySiVcOFb/EEAOREKas/Pd0O6ckTHVqKEU96WcimvzDXLdjlqQiRmZc/s5CmNjNfFKx8+w8mIlYAAAWiAWAIBALAEEgFgCCQCwABIFYAAgCsQAQBGIBIAjEAkAQiAWAIBALAEEgFgCCQCwABIFYAAgCsQAQBGIBIAjEAkAQiAWAIBALAEEgFgCCQCwABIFYAAgCsQAQBGIBIAjEAkAQiAWAIBALAEEgFgCCQCwABIFYAAiyQyz08wLuq//1zzesftagYX+yIdToVtIY+Gev70j5qYQbxlN+ruEFfmJhTp3vh0zZCxEUixDDMIlZRP33O/h3ObYC+X1+wg/TJIGeb/5dl/uy/F2Tl6DnAsSywF3xvi/6l52KeDZW1icl7c/lbHx9TbCzvCa3i8Vh6zYk+ktUx/KYW7AjgFhekzuIpe4soUDyz8DtirrYucTPyBUT4nPQ8JN1qewiuiljob7nOw71VWyOv+vIfbRr1YnSpve/8Lch+knx/d6I89T3Yj/d3srPg7qj3pb6kn2syrTvEMsmIbHkidqqo9gTeJm86aBGLVm5X06aUlr5uaQkpH8rH0td8yOhhmGnHOx//16Kge5fFcvCXxEjZT/5dj4t4jzx3U10SnAWbq4jFxHZ76qs9ClilMWcxShD8gkcLpbv8zrxPIrdcOTFSk0Mfg0CSG30trJvsq04KAlbe/W5rfrn7iyE8rf4ooVtxaRY+F7sTm31D+b6yPVXZdWGFNLu+L0Jh4oll18VwJx84YZXiCWdW/MliTgpNvuWu1/qP332kbdK+uey94nFS/CtOM98X9vKY5gtZFtlRix0bTNsb8ZxYkkJqQMaJ9uNB36/WFb/TV0TTNvzKAma66RVtWxSZXXNffAtGLNPLNbXzDLOAut7PddjbX4vE3xVNvq/rv++7BJLCbw3iXnCTeTC/02bky6QGJ29YkkTa2c192nbb818sZl2qLaLkChOdpzWvy1/a+IN5+qaYOF7FYtI4iZoPs3lWpi8K26Xdbt8rvr6AIJiERNYDjsBsoyONtGULHxeJtCrF4Fscds0U7r/tKqWpObz5Od/4y1Y9qF8iJbtqGhOjYHcPUvfyn/r33/b/pZmMiZJfINdwcL3ajuNV9ym2bGrWzhTHi07JRFhZwF/GhbLh+Xww4BY3giI5b5ALG+Ce3sHDgViASAIxAJAEIgFgCAQCwBBIBYAgkAsAASBWAAIArEAEGSHWMwzXhb7zNfWg0N76x9CGgPe7gKuJCiWjSdhE3vf1oK3u/i0v8RDLC/Hrtuw6Yq3NwmflLR4u8s2T1nE/giHiEU+vh25+9hb/xgecwt2BE8TC31nB2LxOWZnYfi7JFEF7K1foM9OuY347koxIT4HDd/aTGXv8naXZMh8v4gO+f0Z6qCNU9jzxi7HJdvz9TyeT991jhVLoU6kToYVe+rL5B0ntPnmrJBv83YXtinq5wXCFSeh5m0x9ioiMa5cTnaGsg/kDmKhemKytthXfyMZMoMAUpt3ebtLqqkXF2s/0p8/9lJvGOd6Ifkk7iKWEmRvNmbsqr+RDBk7yencmm+7UT42+5YJmvp/8ttddPmWeEZ7s7GPvpAtqtvH9JncbWcRc7DJvvrbyWDF8n5vd6kC8ZM4EB/Cjr2e+7FigX2yYHaJZX17QOQk2qoj2Vs/kgwqAVNiibqF3Kdtb+tYis0XeLtLsafFZdHzZOytxk5jTB/7621rOpfiyHYhlk30SqZWwrLCirJhgilZ+Ppm/RVki9umSa6rIV9LE10mnM+Tn+/2dpcEr/L6mM2Jsbcae2tHtrJYZN1dc/V+7NpZwCuQBOn+vYh2A3A3IJY/xribVf7K0wl/GYjlz2Fu9ej45M8SjwJiASAIxAJAEIgFgCAQCwBBIBYAgkAsAASBWAAIArEAEGSHWOiPYZPng9TzSsPDWPSXZyp3ivchn/+62djxlFjc4Nfsr/QzhvrlGa/1w5ZHc+uY/wJBsayfhC2BEteHwLWnWctJsXV9XFN70VdOlHeao7aoBMWytz64nl23Yf6KV3cc9bhFFkerV8tVQqvynaS2Whz2+yR/Hz/Oc/bWv520YL3TChXkMLHI67leE493S3DTbcJ77yyZVxfLJ9xyeRwglgR/D6IEUCezvgVjbrwVKzZTf63PeyEfWqziLolCffOC0K4VX+xOSzZymfBbuy36SbHbfrvLRn0b83Ke/L9Q/61unYdNn/JRCnX93saOOWPqqvHUsly/5FSp89jPWNdwjFgyLRGMMOzEFW4Uy4NZfwbLPPLtLhv17Ty0c9GmkOdAjEHt9ib5yUZtTmNqtuyYM3Z+STjFR/o3HSpOyr/X4yCx5MHmwHMgxCR4YqGd6MVj07FjUMmTzx/4dpdIfddfvXL3FV0fxe9cf9a/Mx6+xmN280T5UPOkxygXW5uvxyFiyQMdBs711IpFeNdeGrlSpsR44ttdQvWjYpkk56r/VLopFlfsaoH8WLHIRGLyNZ6sGkhZvp6M16RNZpr0p77dJVI/KpZlH1qQnW2xFNumv3RRLJAfIBZ3xeDg2cmannvi+gNQAj3/7S6B+lYc9rxA7eRE8EIwKeOXuQ8LR+pVj9H6KNrUs1L+pmIRE1IOG3gKFpc7k1xXm1r+4jGZME7wuDqbONzp7S7L+kUYXJbm6T9zLo0qO+lQfdo57ztNG0Opb8esBbF1PcezCIWvrcb9ZHbtLAB8MhALAEEgFgCCQCwABIFYAAgCsQAQBGIBIAjEAkAQiAWAIBALAEEgFgCC7BALPQO08exOf/Zp9tTqAcjnn9wHzczzSuQLfsME3EJQLOLht6lYuM4dRVJI/QgfsjiVXlhI+iL5Zh8ABSDOrtuw8SlbhpLRXeUPJolBdyO/T7LyI+82LyAW8aj7UbzXjpnm8BF5dAWHiKU+Yn3vHYWZ7yz1FnAhiEFoj6beHsrH/G+mPGb/PjvmK3+v5QCx1NX8dEkrZrnVeYBw3M8s/DnlyL7lZ5+akPK7F5z07VrxhXa3dpA/9rsjLcH156vh+zKpffm+Si43SVTLe9s+NzObdD3bETEsZoV/SsxNjGJcNgfkfKj429yoY7Z+1/5s3JJf/2O7HKtep4Wi9J3Kd7255jpuFwsFKv+WffXnHkkb4X79DqtdGbNOCr4V1HU5WThi9jz7zImQqeW5uUwolbwWTpZWZWaT40MH+diEzvMqx0ZzWw+6xqLiMeY6IjY9R2SyiliZnbCOk8vJR2FvHF+PkfJPtil15n1ey0FiEY5laBDK/7tzP7EMY7TjU293IdyVuk50O5eTLQ8yrBNpQrEhEmFpc0zGYU5dezrRul9GgO3g+ma8hr5L8xh3iqWczvxj2/1YLjoB7iMWO6AHUYOvA3cMcjxpQpdvd6l1a1md/KVYbDwFV4tlavMYsdRrXSzzeTbjJTiZS7tmq5QcJ5a5U1dz2GcW5dtB295u7C2CJQX22tWl3V6lPuZvd7HiCIhlIYarxTJtc4xYehs7PosjFuufOj9QLNMF43p2iaUkjOOEndSWWE+g+uL0n4N6i080qeu3u5jJJvG64im3blRfxbSLz8bVRSxMdYdb2TT+JYbEsslXzuUYvGTVi+VP8qOezsTS7de7ASd31KLU7bf55WvW30LtV80327uBoFio83ZY53jQdEgnnwEFuPt7hE/jxA+JlpCT+ZWEdM7JKfpvcWr+2NjWxFF2loLp7fsQPZskFL6WKg99UOLXg+aYkvF87nVV8ie0HS7XPlix8fXzmfus/TVbIq4yt/h/1spYPX8ZmwNmnq5h184CPhB35f5MIBawBmJpQCxgzuo25wOBWAAIArEAEARiASAIxAJAEIgFgCAQCwBBIBYAgkAsAAQJisU8z+M+qOQ9wHcn5B/LXGfMc1Dteas7fFe9PIOEP9h9AgGx5MTrD/Lxg246R4WY7i6W1JfoI/ujfGEh6YvkH5IaXM+2WIZvAY6PeTNFSPcWSxKDFeqfertLI/nq+vk3+YR3sl31maV958DwELEsdpa66y0EMQjtecxi+Cf5kFvRK8RSdxZvnh8jloT7mYU/p6y++3EdVYTUXzrGLzOJPst5SpzhbSMM3xL2Q4udrst2bJO/LCbK+3c95LhrvexnL7fJrP3o80l9nNMdBfVVyibfD7Gx+Tr9+/sP/Zvj1HxondS+7VtfMtMYvAD7xZKDNhnEw8TiciexmFWzTib10URrz9PRs8+BE7LXyXalCNvOI22yHyJxq4kuDk5EbiPLe2xyHRGnNkaulw8pLmk/n9b+m/tNzHROPrjjUf7puZrG4EXYLZbvswyK5i3FIuirtOijJIo9n8eoQr72bFMJ3g+yO0nGnke+PZl4MsGr4G1fXN/aMgjx9u72iKWcjf7RNelPPe43n3vZJZYc5FkMM88VC03IZqLuh5OrjN0VxxFiWbSZJGOfi4BYRJsynt7YMBEL72bluun/MLEcP3dHEhdLCoge3MizxaIn1CEwhoGSCFviOEIsMvkNg01bPyCWdqu1NU+eWGx/5nzi336xLGLwAsTEkoNhRuH9V2EJyDPFkuBdwPrrjSGESYS6ey3EMSSOT0uelMT5rSPVb92uvY9ssGkTyxeLnAsvWVU8yI/RVsYkd/FH9C+EqN4wwxV4EWt9GnvEMgYvwKZYWvLZQ4mCgt+O7WS5K3Jy+FCTvwc9NvU2kv/435PzRQxaXG1Ct/aUjJSY9cg2tT+nlOElMfmaTMbka4uDXcRsjEo5JTlfEzFTviW77ENN+O5TayL9TrYvTazWfx0kNwYvwu4P+OAvQGJ56or1fkAsbwnEcg8glrdjfZsDrgdiASAIxAJAEIgFgCAQCwBBIBYAgkAsAASBWAAIArEAEGSHWOi5IfuMESGfIXOf57HPIplKm+0b3oN+jHm2SR73eshIPEQI3pugWMRfhT2xlIfm+EncWtfm5vdZPKlrCbSvCDGskl/ZS/BDffcSDPgIdt2GldV/EEtNYJWHOTllvbT6nqdLb6C9YrWzEFYsifo0K3YAcD23i8W7DTHX5GPXQ44H2muuEwvf5q2aAbDidrE4iZku+rdSpa5J9D3tC0IsbM/WdWzanUV+RsrH6oHDZV3bVzlP/Uzf7lIp/iSnpe0+Bh6jecNKLpG+mN27fiZMvqR/952cb6Hz2NO/iyG+1sfSFrTmRK0zvoGFfDPtP4HHiqVgyna3F5NFFcpES7/cBBZ1zM5VE9D6QKzqst3hvPs24idbF7Ms7/1mct8yOVlw1SbX5STvdqsrZLf5petlur1aVn2QcZH9ZFbz9H7cRyy0ys2CWOxw4e72dtIdv2TS8mH9JmqS5sP44ODWtf6Xc53kI+MYUkORvPNyNaZy5L69+pXiszv2lVjK2VBex8b9isPp9x15yGeWgRx0DvDu9lGxrJO/tEkTXcxs1F/Wdc+vEUu9thbLRkxbAgt/aOGp12X7K8UyWXQ+gdvFQhMr59Wv18nlvf7e9mMiDfVtAlvcBJ/U36rrnl8jlpqc9dJW+YImDjue2r77dqVYZnH6AHaJZbql5yC26xuTmifT2tjT3kkkXyxbq3AvL+OaJcFWXdvXVt8FGoOwo8fgiYXqGNv9bSrCpyKYeq5fiphjy+emD7kDlWuOWLiNmj/5Yvb3JiiWGri+zY/JUCeylqs5VrcB6bBCIabtFZxkdKSKst3X1z+//8rydOjJZvR41BtbhuqLule/3YUTtb8lpQtnHKOkirUftTi1SaKQceZmWSwnYW/cKagszUvsDSw2F4RI35xdOws4ChbLp6TZewCxPAWI5S8CsTyc9W0WeF0gFgCCQCwABIFYAAgCsQAQBGIBIAjEAkAQiAWAIBALAEEgFgCCQCwABIFYAAgCsQAQBGIBIAjEAkAQiAWAEL+//wdWk64yDchylwAAAABJRU5ErkJggg==;" vertex="1" parent="1">
                    <mxGeometry x="92.49" y="820" width="203" height="188" as="geometry"/>
                </mxCell>
                <mxCell id="88" value="" style="shape=image;verticalLabelPosition=bottom;labelBackgroundColor=#ffffff;verticalAlign=top;aspect=fixed;imageAspect=0;image=data:image/png,iVBORw0KGgoAAAANSUhEUgAAAMgAAAC9CAYAAAD2tzLsAAAAAXNSR0IArs4c6QAAAARnQU1BAACxjwv8YQUAAAAJcEhZcwAADsMAAA7DAcdvqGQAAAASdEVYdFNvZnR3YXJlAEdyZWVuc2hvdF5VCAUAABTKSURBVHhe7Z3bceu6DobTYfrZj/vFRZwC3MDuIaWkjBxeABIAQYiy5UuU/5vRzJJ4AwH8pLwiyx8/AIApEAgAARAIAAEQCAABEAgAARAIAAEQCAABEAgAAXOBfF1+Pj4++vF5/flOl7+v15+vWuM+TP+XsNPvn+tnrfd5zVYcx/f1U9nB8zwT39fLzy63fV9/Pj8+J216LPRxWcuL0ndvN4v710X0/cKYuALhpFHJ2Ca26IgVhEhWBfIRV9xFF0ea0yPm9w6Eya7Ri8WkjV046VhauKhtq2vPCxxrjoM9fy6OQCKDvn4uRxq6LJDH0Fepk4mCaaLfFsiwk07aZJ/dFivOK9GvtyhxTohBOE5H3z2s4Agki6Aa5Dmi32KJVT0feRtUqwtN2rvGKIHI/mRwzDiHKKnPUR69azOmTZYWWNGuzcUJdjmchDP9jLcSG3YkemLnslT/Qn2oseftLbo/utiwfvMXltaHnI8r1jHX2qIl4uz29yTcWyx1/xc61Ute40R7TUx8TCDRn3LGpP2d+DtIt6EOZc8JKe60aHxeLmRj9RcHlVe9OpbwJScMzXNMDJoznffEFbZSH9rOWv6dfBknu0/UppeZQzlG5kTvw++3x7X6yY+zO/cnMfmQLgyVh3JExkvo1WsJmWTUtZ+0TxRIs6lfcwMkxU1zKvXKv9leJ0GK/d0fLCBdnjB2dBtEgnEd5WfP7jHZZ8zbiBg6h7z9aX2IWPv92rhuCWR9HkcxEUilGyYPkSTSaSpIK9cSbyiQds2100nOdAwmibLhyP2KW6vpfXWrYwUixhP9qOvELYm13kbEpBwyXiN+v79SIF8/V2uFCUQ3/mwCWbfTvcZEZZkVgTSETV6fVoyi8LECIdr49wnkF91iZSN9Q8bV9Y0EYkVcjjjI3ljjHBPNTtFfJAJR5gpA2jqbT4ITI/fRk8QTnRYRl+9O9sQtbarPNpK3zdkXCNvc/C8m2WySMXkSE4FMAsuBb8a/kUBuwBurJ0h8zbO9IQXgBlXMZ5JYdsx+LsZLNsixuQ7Hrrc5QiAcw7Gv3EbmS+tDzb3nQLO5+cnxq2jLcXJz8sFMBVKMVJHnCcqAropB9Cmd9oYCGQPpBDYTCSTR+zYJwSeifZ9Tmif5p7evCen2R33oc5HAbQzq4yp8P8EdpyBFLZI1z0nGVPhrEBPZ09ra8wK355jY8+fiC4Q801cTOqaOoONyXbyW+m/B4+MzjeuNN45z/0qig81HT4hxTJUscoegw7NJJls5lP8Sgw9EEpiy8l/J7ZwSL9WprhT1pJ2JqEwyxLodwiZn3sOcEv4OQpg+ZjYp33n9PAlHIAAABgIBIAACASAAAgEgAAIBIAACASAAAgEgAAIBIAACASAAAgEgAAIBIAACASAAAgEgAAIBIAACASAAAgEgAAIBIAACASAAAgEgAAIBIAACASAAAgEgAAIBIAACASAAAgEgAAIBIAACASAAAgEgAAIBIGBRIPS2c/ct2/pN6dEbxBv2LeFLje4lzYF/AfaBlLeS3zGf8mb0F77NfJsa76eE7A1YEIgQwBC4LJz+enx+7f2W874uL/ithyTKy90/m/BYwp8NeAt6LkAgBndl+7rqH0gpgtlYQV+UqN/Xi7H1PcEO8l7cJxCHrVuM1R90OZbn3F4dAQTyXhwskLqDLDmPf0Fpl6fFDiV+gal0IT7XDL/2lMquYpgyFxp7vrPQWKXP8WfQeIx2rRpR2vTxA3sbYpzk368NP09tL/2nW1f5+U4P1NvSWHKMqEzbDoG4LAkkB2erjmKPs2XCpoMatQTlcTlRSmnl+5oSj/6tbCx1ze/oGYYdceiffza721cFEtgrfKT6T7ZdPgM/T2x3k5uSmsWa68iFQ44blZUxhY+ygLMApUvOzKEC+brEyeZR+l32tliRicGuIelTG7197AuwFQQlXmuvPodV+9wdhFD2Flu0mK2AFIHtpd9pX/3DtT5y/ais9iHFs9t/v5zDBJLLb3JaTrjlhjcIJJ3b7kvicCJsji13uTR++iwjb4P0L8fuE4iX1Ft+ntke95XnMFu8tsqMQOjapttOwjECSUmonbhO7nfd2fsFEv2Xck0q3Z9HScpcJ62eZTMqq2geg2+vmH0CsbZmQj8LrO31XM+12R0mdVQ22h/XPx/LAinO9gKXg2y8tfxfqjnRFpKhs1cgKZg2knlM234r2qXPtBO13YKE8Gnnae3bsrcm23CurgkC26tAROI2EfNpLtdi5N1vu6z3y+dqrBOzIBARtHJYp8syOlpwKUH4vATNq7cC9cVtU3T0+Gn1LInM58nO/8bbq2xD+SAs21HRnOoDuUuWsZX91r7/tu0tzaRPkuCGfgWB7bXvNF9xC2bnrm7PTPlq2WcSDnYQ8OtggfyRvH0aEMhJgEAeAwRyAtxbN3AIEAgAARAIAAEQCAABEAgAARAIAAEQCAABEAgAARAIAAGLAjHPVFnsM1ZbD+rsrX8IaQ54qwnYyYJANp4wTex9SwneauLT/iIOgbwNy7dY05Vtb+K9KFHxVpNtXrJwvTl3C0Q+Cr1yZ7G3/jE85/bqCF4mEPrOCwSiuX8HYfi7GKtZv7d+gT4L5Tbiux+lC/G5Zvh2Yyo7y1tNUkfm+zl0yO+f0ABtnqI/b+5yXrI9X8/z+au7y3ECKdTg6QSI2FNfJuwYxGabsxKe5q0m3KeonxcFV5CEilsw9yocMa9cTv0MZX+IgwVC9USAtthXfyMBMkPSpzZneatJqqkXFNv/ynj+3Eu9YZ7x4vEXOFwgxbFeBGbsqr+RABkb2HRuu2+7Tj42x5ZJmcZ/8VtNdPmWYMb+ZnMfbaG+qG6f09/iITuI8Psm++pvJ4AVyPnealJF4Sfugn8IO/d67vuKRfUXRbIskHjrJ3LibNWR7K2/kgAq6VIyibqFPKZtb+tYSp9v8FaT0p8WlEXHyfQXzZ3mmD6611vSdC4FkfuFQFz0iqVWvLKSirIhqJQgfH2zfgT1xW1TYOuqx9dScEuQ+TzZeba3miR4NdfHLCamv2jurR31lQUi6+6K1XlY3kHAO5BE6P49h1Z9cDgQyC9i3LUqv+Upgd8IBPKrMLdxdPzFzwbPAgIBIAACASAAAgEgAAIBIAACASAAAgEgAAIBIAACASBgUSD0B6rJ8zjq+aDh4Sf6CzCVO8X7kM9b3d3Z8RRf3GHX7K/lM4b65Zmq+IHGo7l3zu/MgkDiJ0yLc8T1wVntKdFyUvq63ZepvRgrJ8eZ4tIWkkWB7K0P9rN8i+WvbHVnUY86ZEG0erVcJbEq30lqqwVhv4/x+/H9PGdv/ftJi9SZVqUNDhGIvJ7rNcF42/1dtwDn3kEy7y6QM99OedwpkAR/j6A4TSewvr1i7rzNKn2m8dqYj0I+GFgFXZKDxuZFoF0rttgdlfrIZcJubbYYJ/lu+60mG/Wtz8t5sv9K47e6NQ6bNuWjFOr6vY2dc8bUVfOpZbl+yalS57mfmfZwv0AyLfhGDDZYhTsF8mTiz1SZZ77VZKO+jUM7F20KOQZiDmpXNwlPfdTmNKfWl51zxsaXxFJspH/Tofyk7HsfDhBInmB2Nk9eON4TCO04b+qPETsHlTD5/IlvNVmp79qrV+i+cuuj2J3rz8Z35sPXeM5unigbap50H+Vi2+f7cLdA8uSGyXI9tTIR3rW3Rq6IKRle+FaTpfqrApkkZDR+Kt0UiCtwtSj+KYHI5GHyNQ5QdZ4sjwPwnrQApkC/9K0mK/VXBRKOoUXY2RZI6duMly6KRfGkAnFXBnaYDdD03BPUL4CS5vVvNVmobwVhzwvUTgaCxT8p4xeOD4tFGlXP0doo2tSzUn4igYgglMM6mxzE5U5g66pSy9/UDxuMQR1XYeOHB73VJKxfxMBlKU7/mXPZqeonHWpMG/O+o7Q5lPp2zloEW9ezP4s4+Fo07xexvIMA8BeBQAAIgEAACIBAAAiAQAAIgEAACIBAAAiAQAAIgEAACIBAAAiAQAAIWBQIPXOz8axMf9Zo9jToAcjnjdwHu8zzQWQLfkMD3MKCQMQDZlOBcJ0HCqOQxhE2ZEEqjbB49EWyzT5kCcA2y7dY49OrDCWgu5ofTBKAHkZ+HyOyI+8qbyAQ8dj4UZxrZ0wxfEYe7eBugdTHlR+9czDzHaTe3gUiGMT1bOqtn3xk/m7KI+vn2Rnf8Xshdwqkrtqf17QyltuYJ4jF/QzCnzuOHFt+lqlJKL+7wInerhVbaBdrB9ljv3vRklp/Xhq+b5Lal+975HKTOLW8t+2xmfVJ13M/woelW2GfEnAToJiXzQEZD+V/mxt1ztbuOp71W7Lrf9wv+6rXaa4oY6fyXW9s2cd9AiHn5N86rzY8IlFXeNy4w6pW5qwTgW/zdF1OEPaYPc82c/AztTw3l0mkEtbCCdKqzPpk/9BBNjZxc1zl3Ci29aBrLCSeY64jfNNzRCao8JXZ8eo8uZxsFP2N8+s+UvbJNqXOfMy9HCAQYUyGDFc2P5zHCWSYo52feqsJ4a7INbjtXAZYHtSxTp4JpQ8R/LDPMQGHmLr96eTqdhnRtYPrm/ka+m7Mc9wpkHI6s4/77ke40AQcLxA7iSdRHa6ddQxyPimI4VtNat1aVgMeCsT6U3CzQKZ9HiOQeq0LZB5nM1+CE7i0a32VkuMEMjdqN4d8BlH23Lml3Yzd/i3JmbeuIu3WKY0xf6uJFcSCQAIB3CyQaZtjBNLb2PlZHIFY+9T5gQKZLhL7WRZISRJnYBvIlkwvoNrijJ8deY9NFMj4rSYmwCRYVzDltozqK592wVm/uojFqO5kUZ/GvsSQTDbhyrmcg5egeoH8TnbU05lAev9113dyRy1Evf8WX75m7S3UcVW8ub8bWBAIDdgOaxBPlA5p2Csgp3Z7j7BpDPaQXAkZwI8knktOSDF+81Ozx/q2JovqJxRJb9+n6PVJ4uBrqfIwBiV7PSjGlICXS6+rEj6h++FybYMVGF+/XHjMOl7rS/hV5hb/j1iZq2cvY3PAxGkPyzsI+IO4K/TfAgIBcyAQCARMiG5h/hAQCAABEAgAARAIAAEQCAABEAgAARAIAAEQCAABEAgAAQsCMc/PuA8GeQ/JPQj5ByzXGPPcUXu+6QHf3S7P/PztvzSfnQ2B5GTrD8vxw2Q6L4WAHi6QNJYYI9ujbGHx6ItkHxIZ7CcWyPBtufGRaaaI59ECSQKw4vxVbzVpJFtdO38nZ37n2O7PIO2ZfcNTBBLsIHV3C0QwiOt1zHz4Kzn5beZOgdQdxIvtcwSScD+D8OeO6LsTt1GFR+OlY/wCkBiznKdkGd6ywfDtXj+0wOm6bMd98hesRHn/roScd62X7ezlNoG1HT2eNMYl3TnQWKVs8v0K65uPz39//qF/s5+aDW2QOrZ920lm6oMXsk8g2VETw58mEJcHCcSsjjWANEYTqj1PR884B07CXif3K4XXdhjZJ9shkrV20QXBycdtZHn3Ta4j/NTmyPXyIQUl+8+ndfxmfhMwnZMN7nyUfTpWUx+8mF0C+bpIR2hOKRBBX43FGCU57PncRxWytWeYSup+UL+TBOy54/cnk00mdRW5HYvr274MQrB9uD0CKWejfXRN2lOPx8VzlWWBZMfO/JZ5rUAoCJvJuR9OqDJ3VxBHCCRoM0nAHosFgYg2ZT69sWEiEN61ynUz/mECOT52R7AmkOQEPaGRVwtEB9FhYQ4DJfhbgjhCIDLhDUOftv6CQNpt1FacPIHY8cz5xL79Agl88EK2BZIdYCz3/luvOOGVAknwam/t9eawhAl+3aUCQQzJ4tMSJiVufttGtVu3a+/bGvq0yeQLRMbCS1DlD7Jj7CtjErrYI8YX4lNvVuEKvHC1MU1/ROiDFxIKpCWcPZQQyOHt2E6QhyIDwocK+B703NRbOP7jf0/OAx80v9okbu0pASkZ65H71PZ8pqwuycjXZAImW5sf7MJlfVTKKbH5mvCZsi31yzbUJO82tSbS7tT3tQnU2q+d5Prgxez6kA5+AySQl65S5wECOR0QyJFAIKcivoUB+4FAAAiAQAAIgEAACIBAAAiAQAAIgEAACIBAAAiAQAAIWBQIPadjn+kh5DNb7vMz9tkfU2mzfcN7mI4xzxLJ41EP9YgH9cA5WRCI+OusJ5DyYBo/4Vrr2nz8uognYC0L7StCAFHCq/4S/ODco0QCTs3yLVZZ5QeB1KRVuZcTUtZLq+xlusQutFdEOwhhBZKoT4lipQf7uU8g3i2GuSYfYR7yeqG95jaB8C1c1AwAj/sE4iRjuujfJpW6Jrn3tC8IgXB/tq7Tp91B5GeefEQP9YV17VjlPI0zfatJpdiTjJZ99znwHM2bRXKJtMXs0vUzXrIl/bvv2Hx7nOee/l064mt9Lm0Ra0bUOuObR8g20/7MPE8gBVO2u70IEFUowZV2uUkr6pgdqiadtYGI6nK/w3m3bcRPsC5gWd7HzeSxZUKyyGqfXJcTu/dbTaF+m126Xqb3V8uqDdIvcpxMFKfzcLxAaDWbOa70w4W729tAO3bJROXD2k3UxMyHscHBrWvtL+c6sUfGOaSGImHn5WpO5chje/UrxWZ37pFAytlQXufG44rDGfdMPPwzyEB2NDt1d/tVgcQJX9qk4JZuNuqHdd3zWwRSr8UC2fBpS1phDy029bpsf6NAJgvNmblPIBRMGUu/XieX9/p724/JM9S3SWtxk3pSf6uue36LQGpC1ktb5QFNEHY+tX237UaBzPx0YpYFMt2us+Pa9Y1A5gDaPva0d5LHF8jWatvLy7xmgd+qa8faGrtAcxD96Dl4AqE6pu/+FhFhUxFJPdcv+su+5XMzhtxpyjVHINxGxU++PPycLAikOqtv4WMC1ODVchVXtcWnw4qDmLZXcGLRkSrKdh8f//z8K8vToQPM6PmoN5UM1YO6N7/VhJOzvx2ki2Wco6QKtB+1OLVJQpB+5mZZIJ+iv3FHoLIUl7U3j9hcEMI8Kcs7CDgKFsjZU+scQCBPBwL5TUAgTyW+hQLvBwQCQAAEAkAABAJAAAQCQAAEAkAABAJAAAQCQAAEAkAABAJAAAQCQAAEAkAABAJAAAQCQAAEAkAABAJAAAQCwJSfn/8DJjbzz79YVCcAAAAASUVORK5CYII=;" vertex="1" parent="1">
                    <mxGeometry x="130" y="860" width="200" height="189" as="geometry"/>
                </mxCell>
                <mxCell id="89" value="" style="shape=image;verticalLabelPosition=bottom;labelBackgroundColor=#ffffff;verticalAlign=top;aspect=fixed;imageAspect=0;image=data:image/png,iVBORw0KGgoAAAANSUhEUgAAAN4AAAC9CAYAAADcB8NDAAAAAXNSR0IArs4c6QAAAARnQU1BAACxjwv8YQUAAAAJcEhZcwAADsMAAA7DAcdvqGQAAAASdEVYdFNvZnR3YXJlAEdyZWVuc2hvdF5VCAUAABV/SURBVHhe7Z3RleuqDoanw/RzHs9LirgFpIHTw5QyZcxFIIEQAtuJE2zP/63ltcYGhBD6wdnbcb5+AQAfB8IDYAIQHgATgPAAmACEB8AEIDwAJgDhATABX3jf99+vr69y3B6/P+Hyz+Px+51qvIaxfx8a/fl93FK924O82I+fx63yQ8Z5JX4e999NYft5/N6+bivalHmhYzyHTLS93Ob7XupccU6IRniSjFWS54Dd9xEeocS3Vnhfq2Z3HUV0YUzvGN8RWC0iHQ86xm2KMNbZjvB857yy5xGZa5kHe34djPBGA/3+ve8ZgNXCew8lea43qZG8mCyLo9n5u23KIrhtzqSdsustdpITyrjM0953O7MxwiNx9QNbbjXLBMSDbgeUkHIwvWtCJTxtT0+66WcXhZYx6qOYNn3aJMwJo9rlsThJFA8nkY2d9pZqwY9AEQyVhfp3tlH13W9vqe3xRcUaEWQbejzuItDmWl4M1Ty79i5Ac6tZdgI6RpPlicIktb2mAtomprJXBbnT/kX8Ha/4kLqy54xeNMJidLvf2ccUL0kWSdDUl4qlJCKPs004HjOfF0EoX9lG7Wcq/wmxXBKRx7CNXSjkqAKjc6LY8O2WeU1x8ufZHfsFcP5xRQVAH1WACU8oa68FdPKyaV8MHxRe9qlccydeLxo8plgv/i3+OokX/S/xEGHW5QHjR/FBJa7UqeLs+e2IqMOoTY6X9KeFqOYl21Bz7du187okvPXjOAOO8BJlwPpQyacSqJ78NdcCBxRek1xE9tNJ+nA0Lqmy5iC7KmG7t2y5jhWe6s/sQNaPZxK230bNoerIn68W3y6Ep/j+fdjR2VuMMvMXE956P91rwqiMWCO8jPLJs2lFrgr3Fd5rolgSHm414+D9Aba7wYGEZxeHeIyTweurHWMg+6nsrRSeKyzta288AUk4slGSzxNzLU4pXysKTb+NmgMVm9V95DHresWm+JzjrwaZ+9BzcgEc4XUSRhIqB+VAwnsCr6+SSONrnu8ZLSw3WdR4qnEWbJ/lXPUXfNB9Sx2Zu9JmD+EtxEuN07sWruYcyD7nODlxVW2lXzcnT4wrvDj4KqMkcDpR1opM2dSTcUDhtQniJAwxEl6g2DaJJieqfRlTGCfHp7RPAnDtsY36XAkm98E2Hir2Hdx+BLWgJBF4sVHzb8XL/mQB2fOItJc5sefXoRUeR7Gsfnxo0VQB5uP+WHkt2M9JIcct9Ov11/bz+sqnhKwOP3lsWUDvaHx4PukkjkcVv0ATA5Vcpiz+l0U+54QOdVIoVT3tZ2AoJEUz1/mwCW9jY8QV8Hc8xsSu51MVO8/OBTDCAwB8AggPgAlAeABMAMIDYAIQHgATgPAAmACEB8AEIDwAJgDhATABCA+ACUB4AEwAwgNgAhAeABOA8ACYAIQHwAQgPAAmAOEBMAEID4AJQHgATADCA2ACEB4AE4DwAJgAhAfABCA8ACYA4YE/Bb0k9whAeOBPAeEBMAEID4AJQHgATADCA2ACJxIe/zST+3NJ9U9ejX4KKmN/5mpVo1cJY7i//+ee4s9LvTCe+BNXh/5ZqjTfH5myN3ES4SlhNQlBgiy/nya/i7Y0Kd/3CT8yGMR+f/l39d7L8HflDkHJBQjvdVZ54a7E3w/zo4S8M45mZZIAfh735gcUjwh2vPdzfuE5LN1qrf2F0n35zG3mHkB47+eCwks73qpJkZ8a3jSDakdVP1UcTajPjc3PIoeyh+omjoX77u+E3Fe0yb8hrhYN6SNfS07ENqX/gb8Z1U+I7/dCnLu+R/vhFl5/fq47Km25L93HqKz2HcLbi/2ER5O+VKdiyyRqIYSDG+XEl34lAWNp4ucREpr/rnyMddvf8NY0O3hj//v3EQ0U/5LwBv6qGFX2g2/32yDOHd9d0bBYZBGgOnpB0v2OymKfKka0MJCwdUjOBsXlCOwmvO/7OIk9ot3Vs6h2EKbxqxFTaFNvd9sSxwqNEzq3rz7nJv/cHY+p/I2+1IuEFWbFwPdot2ur/KNIfVD9UVmyoUW5OX4HhMZ3BHYRHpU/NRmUyKsbPiG8cG7Nx4SUBFvsW+/Kof/wWVHfDn6H3bTEZJvwPLEsxbnn+9gWjaG3KC6VGeHxtcWwHZjrCC8kdz056yG76ydxu/BG/3WRkrW25xGTneqE1T5unnHVpz7kNlPYJjzrKzGMs8L6ns7rsWa/h2IZlbX+j+ufg1MJL06ilxCUPGYWVv/TPSXwiiQrbBVeSBKbIdSnbb+URdFm2Dnz7sYCu9lxWv+W/E1J3JxX1xQD35PwlCDy4iCnVF6LXHbr5bJiV86rvk4G+X4EFrxQyRAPO5m6jI+cNJx4ch6Twau3BrYlbcOs1/2H1T4KRM6Dn/+1t5nkQ/wHDN2Oi/qkGOhdPfZd+W/9+2/Z39hMxyQIubGrGPiebIfxqltRO/bqNtWUry27BUFix9uHY3gBXkKEd2I9fAwID+wGhLceCA/sgnsLC7pAeABMAMIDYAIQHgATgPAAmACEB8AEIDwAJgDhATABCA+ACZxIeOaZS4t9BnPpQb6t9XchjAFvGQOBkwhv4Yn5wNa3huEtYz75CRQI762cRHiJ7kq8NaEnCQBvGVtmyoI4gUsIT39lZM0d1tb6+/CZ28w9mCY8/s4hhPc5XtvxBPku3Fo1ba0f4c+a1EZ99y6aUJ8bm2/Dh7KrvGUsGDLfj+RDf/+PO8jjVPa8setx6fZyncZzpd2QxnQE9hFeJCVFnVgjttTXQmiTI/vmrNyXecuY2FT1abFxhc5U8zYYexKkGheVs52m7OTQfByBHYXH9dTEL7Gt/kJiEY2YQpurvGUs1KwXKmt/TX/+2GO9ZpzjRemsXFJ4ccK8me2xqf5CYhE2YcK5NZ93SToW+9bJHvqf/JaxunxJiK293thbX9gW1y1jOj80niOw+46n5nORbfWXE8sK73pvGUti8wWxIj6MHXs692MlYr2K+GgsR2CVF+NbIIYScqmOZmv9NYlVJXNIUlU3Qn3a9raOJdo8wFvGor1aqJZ6noy90dh5jN/UB60u4VwLjexCePuy4EW9wlYrdFz5VVmTLJx4cn2x/gi2JW1DwqRVWq6FpInJI+fBz6u9ZSwgu0999ObE2BuNPbdjWyQ8XXfTXB0bGs8ROIYXYAVB3O7/R/IuBVYB4YFNtLts4ixP5RwFCA9sxNzO8nGVz16fAsIDYAIQHgATgPAAmACEB8AEIDwAJgDhATABCA+ACUB4AEzgRMLj/7jtPK9XPT/YPBzJT1xwuVO8Df085svG9ifG4gW/ek+n9Gjqx2cuxw9S782rY/40lDtHYMGL8RPzMejqejMJ+an3eBJtPT9Hob3qi5LuRPO9SF6gVgpva32QOInwEv5KnHbC6pElElqul8orcVTlGwlta6HZ78OdHz/OfbbWf52w+J18tbuM8PR1qpeF6N32vHQrdO0djzi68M52W+lxAeEF5HtccTJqYdS3mcKLt5vRZugv9/ku9APJaaGIScd9y+KSr0Vf7B0A26Ay5XfttuonxG75LWML9W3M43nw/8H957ppHhZ9oiMW1vVLGztmwtStxpPKqH7MqVjns59Jqc8j8JrwiJxURmQ2CSIvCu/DjD+zEp98y9hCfTsP+Vy1idAcqDFUdyFGSGwjNecxZVt2zISdXxZh9JH/5qOKU+Xfe6G+j8CLwqPA0SRKUNWEesLjHfKDcX4NO4YqEen8g28ZW1Pf9bfeUcpOUx/Rb6rf698Zj1yTMbt5UvmQ8qTEiIqtzfdCYz0CLwmPgtYEUepVKynjXTs0egUPSTbxLWOr6q8VXifRR/2H0kXhuQtHtdhCeMILwtNJKdA1mfg0Kbp8PLHHJCdGSKCpbxlbU3+t8IZ91OIuLAsv2jb9hYtqsYXwhFVeuCuZTISd+O65J9QTwMk4/y1jK+pbodnzCLfTEyGLSqdMfmimWYRCr/UYrY+qTTqL5RDeovDU5MbDTiIHXsqdhEmrYCr/YHx3pE2WdtcwcXjTW8aG9aPIpCzM03/mXBut7ISj6tPOedkB8xhifTvmWlxL1ymeUXRybTTuHaG+jsAxvADgQ0B4AEwAwgNgAhAeABOA8ACYAIQHwAQgPAAmAOEBMAEID4AJQHgATADCA2ACJxIeP5O38CxdeRax93T7DujnEd0HP83zg+wLfkMOCJQXR2DBC/Vga1d4UueNgouEfpQPJPRKeyLK+iL7Zh/uBn+Vkwgv0T6NL3Biu7vPzgRh1d3o78ON/KBd8ADCU1+v2Ytr7eRhDj+QR5cQXvpax7t3OqG/46Xb3IG4GtF+mnQLrL9a9DLxqz3X2ck/9b28Cwgv7TK3R1jJabeJx5tF6H7Gk891e/atPyum5NbfHRMB5WvRF95188H+2O++ZbHUn0eb7/uF9vH7dlRuEjKVl7Zlbno2+TrZUTGMZpV/1cKQha3GZXNAz0cVf5sbaczW79SfjVvw639iV2JV6uRQxL5D+aY3qF1BeBz0W7iexvYOAazhff02q3Acc51gcrtb15XEk4jZc/JZkopI5dRcJ2clBIskXq7Ssynx4YN9zIuGzKseG89tOviaCFTGSHVUbEqO6MRXsTI7dBqnlLOPyl47vhKjyj/dJtbp90lQmyPwovDUIAkOSBWLt/M+4TVjtOOr3jLGuDtISpp8rhNHH2y4TsoO0YZKqqHNNrGbOXXt1Ulb/DJizofUN+M1lLsHGeNG4cXTnn9iuxzaDzo/AvsKzwbnQ6SJrCdhH/R4QnIM3zKW6qaylEhD4dl4Kp4WXtfmPsJL14rw+vNsxsuIMGK7bCuW7Ce8vlOR8wvPBoJwtvaPYG+DLGGSeqvvEvkWMvTRf8uYFdoK4Q2E9bTwum32EV5pY8dncYRn/avOdxRed/FJnEp4MfmcAdkEyUk6geSL0z9N0Cs+cYKM3zJmEocXAleI8faU61cxLUK2cXVRi1zaeUc2jX+BJkltIsdzPQYv8euF9yf4kU57wiv2012KkzvVAlfs5/mVa9bfSOq3mm+xx1D7I7DgBQ8kH3agEkA+9IBnwJNV/N3DpzaJmqQN6MT4CqK8U6Kr/nOcsj82tikJKztD8ZX2ZYieTRadXAuVmz5YROngOebEvt9L3UpIgdqOlNc+WOHK9ftd+kz9ZVsqrjq35F9I41g9fwWbA2ae6NoROIYX4Hi4O8r5gfDAsYHw3gqEB1pGt3InB8IDYAIQHgATgPAAmACEB8AEIDwAJgDhATABCA+ACUB4AEzgJMIzz9e5Dw56D+e+Cf0fu64z5rnE/PzjG95NEp8JvN6THVeH8uIIDLygJC4P6cpDrHW+K2G+XXihL9UH+VP5IqKsL7J/EAhIHF94zber26+WCFGU7xZeEJYV/aneMpYJvrp+npOzvensBDteS/7OlOEjwhvseGk3HoirEe08ejE8JSe83T6h8NKO5+XMZ4QXcD/jyee60XfXniMJmvsLR/vFTtVnPA9J2Lz1SpDb3nLUCwdf1+3EpnxxVpWX76rpcad65Gcpt8Ko/SjzyX3cw50O9xXLOt9vs7H5uv37+w//LXHKPuROUt/27WNENwY7Q/aPwHovaAI6AfmY8FzeJDyzmqfE4D7yAmDPw1Ey2UGSu9Qhu1rQeUfUNsUPJYJkoghNklra6PISG6qj4pTHKPXo0ELV9uk09Z/dzwsDn7MP7ngq/+q56sbgDVD/R2C1F993HeCaSwpPUXYP1UdMOnvej1GCfS2ZW4mlHGy3k9glJ317Oom1WNLiYfuS+taWQS0EpbstwotnrX98TfuTjvfMJ9k+Aqu8oAnrzQcxV3g8uYtJvx1J1Dh2V2h7CG/QppPYZS5WCE+1ieMpjQ0d4ckuG6+b/ncT3v5z1+M8wgvBrQPVMlt4dXI4rBhDQ0yqJaHtITwtJENj09ZfIbx8O7k0T57wbH/mvOPfduENYrAz5xAeBdZExPvn4xjcmcILyO5k/fXGsAqTVGlXHQitSUKfnIhBEPT2q+R33S6/r7OxaZPUF56eCy/xq3iwH60twggl+qP6V6Ku3nQmFWRBzH0ae8wwBjtzeOHlRLZHJTCeyHwsJ95b0RMtR5VIW6jHVr0V6z/5u3M+iEGOqxVHbs+JzUmeDrJZ+3MLaolJLtd0YgdfcxzsgmhjFMtZMHJNxazyLdgVH5J4ik+5ifY72H5k4Vv/6yC5MXgDZPsIHMMLsBMsvKmr37GB8MAbgPCWgPDAzoxv5UACwgNgAhAeABOA8ACYAIQHwAQgPAAmAOEBMAEID4AJQHgATOBEwuPn+Owzf4x+ptN9vs4+G2gqLbbPeA/xCuZZQ32866E/9YAwOA+UE0dgwQv1NIQnvPhArDyxn+raPP++qyf6LSvaJ5SwRkKq7AXkgd13iQ+cjpMILxF3pUZ4SQxVTlOi63phV7h3t4QV7StGOx5jhRdIT71jZwKJ8wvPu9Uy1/RXPRq9rGhf85zw5FZ21Az8Hc4vPCfJw0X/djHWNaLZ0j6ihCf2bF3Hpt3x9GdKOkYPEw/r2r7ieein+5axRPQnOK1tlzHIGM2bvqhE+2LuKtJn6OBL+LvcYcjHBBp7+DsakmtlLHlxzE6kOu2bwNg30/5skO9H4DPCi5iyze3VxHOFmDTaL1cMqo7ZUVMyWx+YUV2x25wX31r8xC0Lgy4v/RLUt050EW+yKXVFMMVucoXtZr/qekSxl8qSDzouuh9iNE/HhsZ2BPYVHq++vQmJdqRwc3ubQI5fWgByWL+ZlPB0GB8c3LrW/3heC6alHUNoqITQL6/GFA/q26ufiD67Yx8JL5415Wls0q86nH6PDvl9BJ4XntkRIt41DU2gTNbm9muFNxZSbBOCH80s1B/Wdc+fEV66NhbeQkxFCNofXsTSdd3+SeF1FrCzQfE4As8Lj5NE54hfr0Dlpf7W9m1SNvWtGCyuWDr1l+q6588ILyV6urRUPiALzY4ntS++PSm8XpxOxqmE171toQnJ1xcShBLD2tjS3klKX3hLu0Mpj+PqJdRSXdvXUt8RHoOyU4/BEx7XMbbLW72UT1F86bx+ATHFVs5NH3pnjNcc4Umbav70j8ach5MIL01Cul2ho02slBSpvMqX6lYnHFZ0TLd9hSQsH6Gibvf19c/vv7o8HHXiCPV4qjeHNdUHdZ9+y5gkfXlbVxFhO0ZNEn45UnFoEwSm4yzNSHg3Za/dwbgszMu6N4HZXFCCPxHk+xE4hhd/BhHeGVP2GkB4fxIIbzYQ3p9jfCsJPgOEB8AEIDwAJgDhATABCA+ACUB4APxhIDwAJgDhATABCA+ACUB4AEwAwgNgAhAeABOA8ACYAIQHwAQgPAAmAOEBMAEID4CP8/v7f3/EHwBWh1x8AAAAAElFTkSuQmCC;" vertex="1" parent="1">
                    <mxGeometry x="360" y="820" width="222" height="189" as="geometry"/>
                </mxCell>
                <mxCell id="90" value="" style="shape=image;verticalLabelPosition=bottom;labelBackgroundColor=#ffffff;verticalAlign=top;aspect=fixed;imageAspect=0;image=data:image/png,iVBORw0KGgoAAAANSUhEUgAAAMoAAACwCAYAAABO3PEPAAAAAXNSR0IArs4c6QAAAARnQU1BAACxjwv8YQUAAAAJcEhZcwAADsMAAA7DAcdvqGQAAAASdEVYdFNvZnR3YXJlAEdyZWVuc2hvdF5VCAUAABSfSURBVHhe7Z3bkeu4DkU7w85nPufHQdwAnMDk0KF0GH35AEgABCnIlt97VbHqSCRBEMSm5NOy/PUHANgEQgEgAIQCQAAIBYAAEAoAASAUAAL4Qvk5/X19ffXyff77Tad/z+e/n9riOoz909Lo79/5u7b7PmcvjuP3/K384Hm+E7/n09+usP2e/76/vsc+5byIlSpOew9jY7buPydh+0nWZBAKJ49KyjbB0zFCyQixRIXytW64iy6SNKdbzO8ZmCW9g940xj7DpiJLJJlpvVte2eMCrzWvgz1+HEYoK8d+/k5HOhwWym3ou9abiYNp4t8WyigC2yflxckTQ86JyJWe80rY9TYnzgmRELxOR99N7MUIpU48O+Ylb7/14olTyTuKSPw2ee8co4Qi7clFMuMcoqg+R1m6aTOmTZq2wKJfm4uz6KU4yWrsjLvyhh+JnuC5LrXnZFZjz/tbtD06uaKMo9s2G3I+rmjHXGubl1hn194DGG691P3hMmBeEpsktOdEAMZEEvZUUCb9r8S/onQf6lD2mBC+n9Lm8X06kY81Xry4vAvWsUQsOXFonmOC0JzpuCew8JVsaD9r/W+K5e6kT+ztU/xWayVzotvw7fZ1rXHy19md+wNwPswLh2VRmZLxEjt6LiGTjUz7yXtHoTSf+jl3oaTIaU6lXfk3++skSvG/x4OFpOsTxo/ug0g0bqPi7PkdS/rMvj51nnZJmg2x1r5du67+Ol8yj1vgCKXSHZRFJItYcL1YkXOJJxRKO+f66SRpKoNLom4o2a645Zred7c2VihiPGFHnScuSbBdfco85TrN8e2+tFB+/s7WG7MgfRLvJpS4n+45ZlWXiQilIXzybIqxShGVtxZKiZ87wZEtobzgrVd21ndo3G2fSChWzKWsF9sba5xjovkp7AWF4gpB+rpINE6QbKMniyc+LSau35P0TLxPXZOF+5o2Z18obKfFXxhuPsk1eQCOUCYLzAnQJvFEQrkAb6yeKOtznu8NKQR3ccV81Dw7dsx+LMZLPsixuQ2vXe9zA6GU+W/4rubec6D53OLkxFX05XVyc/KOuEIpzqoM4InK4ERFIWzK4D2hUMYFdRY4sxJKots2icEHon+fU5onxaf3rwnr2iMb+lgkeBuDbJxF7Ce44ziUdm4Dsf5WbORPS3h7XOD+vCb2+HGMQqEAyF2sFJnkKiBUTufguWS/LSKX7zSuN944zvU7ixCeKH3dxzFVTsgrBhXPJ5l0paj4JYYYiGQwdeW/oNsxJWBqU0Mp2kk/E9HEH9a6FS9Ba/xm9vwrCmFiN7OhYufZeQBGKAAADwgFgAAQCgABIBQAAkAoAASAUAAIAKEAEABCASAAhAJAAAgFgAAQCgABIBQAAkAoAASAUAAIAKEAEABCASAAhAJAAAgFgAAQCgABIBQAAkAoAASAUAAIAKEAEABCASAAhAJAAAgFgAAQCgABIBQAAkAoAASAUAAIEBAK/QyC+/p9/RMKq58WaNifTQh1upY0B/d30o9l/rshMcpPJjzJzxz4rH/y4Z3ZEIoQwrCAWUD99zP4dzG2gvhzesCPwiRxnq7+XZXbsvxdkaeg5wKEMsHd6X7O+heVinA2dtQHJezv+WR8fU5wRXleLheKw9atR/QXoI7lPrddRwChPC8HCqVeUUJB5J9e2xVxccUSP91WTIjPPcPPxKW6sximzIXGnl9paKxic/wdRR6jnatOlD59/IW/DTFOiu/PRpynvhf76ZZWfv7TA/W+NJYcY1WnfYdQloSEkhdpq41iT9Bl4qZCnVqi8ricMKW28ntOCUj/Vj6WtuYHOQ3DFXKwz7/L3/2rQln4K2Kk7CffTt+LOE98d5OckptFm9vIDUSOu6orY4oYZSFnIcqQfAqHCeXntE46j2I3HHWxQxODX0Pypz76crJvoa0wKAFbf/U5rfrnXlEI5W/xRYvaCkmx8L3YndrqH8J1ye1XddWGFNHu+L0Rhwgl118UvJx44Y4XCCUdW/MlgTghNseWV700fvqsI2+P9E9S7xOKl9xbcZ75vraV5zDbxLbqjFDo3GbY3pDrhZKSUQczTrYbD/p+oaz+K7oml7bnUZIzt0m7abk4lV01j8G3Xcw+oVhfM8s4C6zv9VjPtfm9TO5V3ej/uv17ExJKCbq3gHmxTdTC/xWbEy6QFJ29QkmLalc0j2n7b616sZmuTO3qQYL4tvO0/m35W5NuOFbnBAvfq1BEAjcx82Gu16Lkq+F2XbfLx2qsD2FDKGLxSrHBl3VU2iJTovBxWTyvXQSyxX3TKunx025aEpqPk5//jbdd2YfygVn2o6o5NQbyqlnGVv5b//7b9rd0kzFJwhvsCha+V9tpvuLWzM5d3baZ+mjddxIQrijgZWGhfGD+3g0I5Q2AUG4PhPLiuLd04HAgFAACQCgABIBQAAgAoQAQAEIBIACEAkAACAWAABAKAAECQjHPbFnsM1xbDwLtbX8IaQ54Cwu4gg2hbDzRmtj7VhW8hcWn/YUdQnlKQrde051ubwI+KGHxFpZtHrKBvRBXCUU+gh2549jb/hjuc9t1BA8TCn3nBkKZc90VheHvgkSzf2/7An1Wyn3Ed0+KCfG5Z/i2Zap7l7ewJEPm+0FU5PdfaIA2T2HPm7ucl+zP5/N8cLU5SiiFuog6EVbsaS8Td1zM5puzM77NW1jYpmifNwdXmIRat8Xcq4DEvHI92RnqPpQDhULtxEJtsa/9RiJkhuRPfd7lLSyppd5YrP3IeP7cS7thnutN5NM4VCglwN5KzNjVfiMRMnaB07E1365CuWyOLZMzjf/gt7Do+i3hjPZmcx99IVvUts/pczn8iiLiv8m+9tuJYIXyfm9hqeLwEzgQH8LOvR77sWJxfbpYQkJZ3xIQOYG22kj2to8kgkq+lFSibSGPafvbNpZi8wnewlLsaWFZ9DoZe6u50xzTR/x6q5qOpTCyXQhlid7B1A5YdlZRNywuJQqf32y/gmxx37TAdRfkc2mRy2LzcfLz3d7CkuDdXZfZmhh7q7m3fmQrC0W23bVW70noigKegSRG9+9BdBUANwVCeRHGq1jlVZ46eHUglJfB3N5R+fTPDvcCQgEgAIQCQAAIBYAAEAoAASAUAAJAKAAEgFAACAChABAgIBT6Q9fkeR/1/NHwcBX9RZnqnep9yOe5rjZ2PCUWV/g1++v7jKF9eWZr/eDk0Vw751dhQyjrJ1pLkMT5IWjtqdRyUGxdHtPUX4yVk+Sd1qdtKEGh7G0PriN06+XvdPVKox6hyMJo7Wq9SmZVv5PUVwvDfh/k9fHjPGdv++tJm9U77U47uFoo8nxu14Tj3QZcdWvw3leUzLML5VNuszyuEEqCv8dQgqcTWd92MVfefhWbabw25q2QDyBWYZckobF5M2jnii/2Cks2cp3wW7stxkmx234Ly0Z7G/NynPw/0/itbV2HTZ9yKZW6fe9j55wxbdV8al1uX3KqtLnvZ6pLuU4omZYERhR20QpXCuXOrD9zZe75FpaN9nYd2rHoU8hrIOagrvIm8clG7U5zarbsnDN2fUk0xUf6NxUVJ+Xfc3KlUPJEc9A5CGIBPKHQFegF4lKxc1CJk4/v+BaWSHvXX71j951cl+J3bj8b35kPn+M5u3mifKh50mOUq63N5+QqoeRJDpPmdmqnIrxzT43cIVNSPPAtLKH2UaFMEnM1fqrdFIordLU5fqRQZBIx+RwvVA2irF8vxHPSFjIt+EPfwhJpHxXKcgwtxs62UIptM146KTbHNxeKu1Nw4OxCTY89Yb0AlDyPfwtLoL0Vhj0uUD+5ELwJTOr4xerDppFG1XO0Poo+9ajUv6FQxGKUYoNOgeJ6Z4HrLlPrXyAeDuPijruyicON3sKybF9EwXVpnf4zx9KospOKGtOueb/CtDmU9nbOWgxb53M8i0j43GreT0DoigLApwOhABAAQgEgAIQCQAAIBYAAEAoAASAUAAJAKAAEgFAACAChABAAQgEgQEAo9EzPxrM4/Vmm2dOnByCfZ3IfHDPPH5Ev+A0RcC0bQhEPsk2Fwm1uKJBCGkf4kIWptMIi0ifJN/swJwD7CN16jU/LMpSI7u5+MEkIehj5fZCVH/kq8wRCEY+rH8V7XSnTGt4jjy7kKqHUx6RvfSVh5leUetu3EMMgsntTbwnlo/pXUx6Vf58r5bN/L+UKodRd/Pucdspye3MH0bifUfhzyZFjy886NRnldyc44du54gtd1Vohf+x3P1py689Tw/ddUv/yfZNcbxKo1ve+fW1mNul8tiNiWMwK/5SQmxDFvGwOyPVQ8be5Ueds/a7j2bglv/7HdjlWvU0LRRk71e96w8zlXC4UClL+rfjqyy0SNsLtxh12uTJnnRB8+6fbcqJwxOxx9pmTIFPrc3eZTCpxLZworcnMJseHCvnYRM7rKudGa1sLnWNB8RxzGxGbniMyUUWszBWwzpPryUdhb5xfj5HyT/YpbeZjXsOVQhFOZWgCyvebczuhDHO081NvYSHcHboucjuWCy0LGdZJNKHYEEmwtDkm4rCmrj2dZN0vI75WuL2Zr6FfnXmOO4VSDmf+se1elhtOkGOFYidzJ2rgddCOQc4nLebyLSy1ba2rC78Uio2n4GKhTG0eI5R6rgtlvs5mvgQncunXbJWa44Qyd+oqrv6Movw68FK3C3tbYElBvXRXabdUaYz5W1isMAJCWQjhYqFM+xwjlN7Hzs/iCMX6p44PFMp0s7iOkFBKsjgO2AVtSfUAqi/O+Dmg1/hEC7p+C4tZaBKuK5xyu0btVUy78GxcXcSmVK9sK5vGv8SQVDbxyrGcg5eoeqP8TX7Uw5lQuv16F+DkjtqQuv22vnzO+luo46r1ZntXsiEUGrgV6xhPmIp08BFQcLu/R/g0LvqQZAm5kF9JRKecmGL8Fqfmj41tTRplZymW3r9P0bNJIuFzqfEwBiV9LbTGlIinU2+rEj+h7XC99sEKjc+fTjxmHa/ZEnGVucX/g1bm6vnL2Bww63QpoSsK+EDcHftzgVCAD4SigFDAyOrW5kOBUAAIAKEAEABCASAAhAJAAAgFgAAQCgABIBQAAkAoAATYEIp5Psd98Mh7GO9GyD+Euc6Y55ra81M3+G55eaYIf4z7FBZCyUnXH8rjh9Z0fgoh3VwoaSwxRvZH+cIi0ifJPyQ0uI65UIZv742PajNFRLcWShKCFelLvYWlkXx1/XxNPuWdabs+o7TvDBjuIpTFFaVe7RZiGET2OGYxfEk+6PZzh1DqFcVb4/sIJeF+RuHPJavvblxGFSCNl8r4RSQxZjlOSTO8FYTh28BetNDpvOzHNvmLXqK+f1dDzru2y372epvI2o++njTGKd1J0FilbvL9Dhubr+9///6hf3Ocmg9tkDq2fTtLZhqDJyEulBywyQTuJhSXGwnF7JZ1IWmMJlh7nErPPAdOxt4m25UCbFccaZP9EElbTXRhcBJyH1nfY5PbiDi1OXK7XKSwpP18WMdv7jch0zH54M5H+afXahqDJyIslJ+TDIjmLYUi6LuzGKMkiT2ex6hCvvZMU8ndC9mdJGLPId+eTDqZ3FXsdixub20ZhHD7cHuEUo5G/+ic9KeW263nJYSEkgM8i1/msUKhxdhM0v1wYpW5u8I4QiiLPpNE7GsREIroU+bTOxsmQuGrWDlvxj9MKMev3dFsCyUFQ09s5NFC0YvpEJjDQEmCLWEcIRSZ+IbBpm0fEEq7vdpaJ08odjxzPPFvv1AWMXgS1kLJgTAz8P47sATjkUJJ8O5v/fXmEMIkQb1qLYQxJI1PS5yUwPntINVv3a+9L2ywaZPKF4pcCy9RVTzIj9FWxiR28UeML0So3gTDDXgDa2Mae8QyBk/CVCgt8WxRgqDAt7KdKDdFLgwXtfB70HNTbw35j/89OV7EoMXVJnPrT4lISVlLtqn9+U7ZXZKSz8lETL62ONgNzMao1FOC8zkRM+Vbsss+1GTvPrUu0u9k+9yEav3XQXJj8ESEP8yDV4CE8tDd6j2BUN4KCOVWQChvw/rWBlwHhAJAAAgFgAAQCgABIBQAAkAoAASAUAAIAKEAEABCASBAQCj0HJB9ZoiQz4S5z+fYZ4tMo83+De+hPcY8qyTLrR4aEg8EgvdnQyjir72eUMoDcPxEbW1r8/LnJJ64tQT6V4QQVomv7CX4Ab1biQV8DKFbr7LrD0KpyatyMCembJd23dN0yw30V6yuKIQVSqI+lYqdH1zH5ULxbj3MOfno9JDfgf6ay4TCt3arbgBscblQnKRMJ/3bp9LWJPme/gUhFLZn2zo27RVFfibKZfXw4LKtHascp3Gmb2GpFH+S09J2nwPP0bwJJddIX8xVu34GTL6kf/crON8257mnfxdDfK7PpW1mzYnaZnxTCvlm+n8K9xFKwdTt7i8WihqURZZ+uckr2pgrVk0+6wOxast2h+Pu24ifaF3Isr6Pm8ljy8RksVWb3JYTvNutrpDd5pdul+n2al31QcZFjpNZrdN7cqxQaHebBbDY4crd/e2CO37JhOVi/SZqguZifHBw21r/y7FO8JFxDqmjSNx5vZpTKXlsr32l+OzOfSWUcjTU17nxuKI4474rN/2MMpADzsHd3T8qlHXilz5pkYuZjfbLtu7xJUKp59ZC2YhpS17hD2069bzsf6FQJhvOp3C5UGhR5Zr67Tq5vrff239MoqG9TV6Lm9yT9ltt3eNLhFITs57aql/QhGHnU/t33y4UyixOH0JIKNPLeA5gO7+xoHkhrY09/Z0k8oWytfv2+jKvWQJstbVjbY1doDkIO3oOnlCojbHd33oifCpiqcf6hYU5tnxsxpBXnnLOEQr3UesnX5L+/mwIpQatX9rHRKiLWOvV+qpLfypWJMS0v4ITjEpqKPt9ff3z96+sT0UvNKPno96sMjRftL34LSycpP1tJl004xwlVai91OrUJwlCxpm7ZaF8C3vjFYLq0rrE3pRic0EI9AMIXVHAUbBQPinF3gMI5a5AKK8KhHI31rdW4LmBUAAIAKEAEABCASAAhALAJn9//wdOWjQux/W+DgAAAABJRU5ErkJggg==;" vertex="1" parent="1">
                    <mxGeometry x="395" y="873" width="202" height="176" as="geometry"/>
                </mxCell>
            </root>
        </mxGraphModel>
    </diagram>
</mxfile>